<?xml version="1.0" encoding="UTF-8" standalone="no"?>
<!-- Created with Inkscape (http://www.inkscape.org/) -->

<svg
   version="1.1"
   id="svg2"
   width="510.00934"
   height="508.36401"
   viewBox="0 0 510.00934 508.36401"
   xmlns="http://www.w3.org/2000/svg"
   xmlns:svg="http://www.w3.org/2000/svg">
  <defs
     id="defs6">
    <clipPath
       clipPathUnits="userSpaceOnUse"
       id="clipPath18">
      <path
         d="M 0,381.273 H 382.507 V 0 H 0 Z"
         id="path16" />
    </clipPath>
  </defs>
  <g
     id="g10"
     transform="matrix(1.3333333,0,0,-1.3333333,0,508.364)">
    <g
       id="g12"
       transform="matrix(1.546154,0,0,1.5370039,-104.1786,-102.75289)">
      <g
         id="g14"
         clip-path="url(#clipPath18)">
        <g
           id="g20"
           transform="translate(262.4888,177.255)">
          <path
             d="M 0,0 C 0,-4.968 -3.917,-7.261 -10.413,-7.261 H -27.895 V 7.451 h 17.004 C -3.344,7.451 0,4.681 0,0.191 Z m -29.083,33.835 h 13.316 c 5.694,0 8.848,-2.481 8.848,-6.869 v -0.191 c 0,-4.961 -3.767,-7.059 -9.724,-7.059 h -12.44 z m 29.168,-18.706 -1.02,0.13 c 4.092,2.687 7.419,6.831 7.419,13.997 v 0.19 c 0,4.579 -1.401,8.3 -4.205,11.353 -3.504,3.816 -9.023,5.915 -16.031,5.915 H -27.61 L -42.224,35.296 v -55.453 h 31.811 c 15.094,0 25.029,6.114 25.029,18.342 v 0.191 c 0,8.979 -5.914,15.658 -14.531,16.753"
             style="fill:#005977;fill-opacity:1;fill-rule:nonzero;stroke:none"
             id="path22" />
        </g>
        <g
           id="g24"
           transform="translate(107.6807,223.9688)">
          <path
             d="M 0,0 H 14.711 V -26.462 H 41.842 V 0 H 56.553 V -55.195 L 41.842,-66.871 v 26.845 H 14.711 V -66.871 H 0 Z"
             style="fill:#005977;fill-opacity:1;fill-rule:nonzero;stroke:none"
             id="path26" />
        </g>
        <g
           id="g28"
           transform="translate(172.961,223.9688)">
          <path
             d="M 0,0 H 14.711 V -53.497 H 40.33 V -66.871 H 0 Z"
             style="fill:#005977;fill-opacity:1;fill-rule:nonzero;stroke:none"
             id="path30" />
        </g>
        <g
           id="g32"
           transform="translate(288.8492,266.3067)">
          <path
             d="m 0,0 v -0.001 c -22.602,28.965 -57.823,47.624 -97.324,47.624 -68.041,0 -123.397,-55.355 -123.397,-123.396 0,-11.539 1.597,-22.71 4.572,-33.311 h 17.775 c -3.465,10.484 -5.347,21.681 -5.347,33.311 0,58.667 47.73,106.396 106.397,106.396 34.072,0 64.451,-16.102 83.938,-41.092 13.971,-18.006 22.301,-40.596 22.301,-65.098 0,-58.667 -47.729,-106.397 -106.396,-106.397 -33.826,0 -64.013,15.868 -83.515,40.55 l -13.391,-10.463 c 22.617,-28.658 57.649,-47.087 96.906,-47.087 68.041,0 123.396,55.356 123.396,123.397 C 25.915,-47.12 16.234,-20.895 0,0"
             style="fill:#005977;fill-opacity:1;fill-rule:nonzero;stroke:none"
             id="path34" />
        </g>
        <g
           id="g36"
           transform="translate(90.4752,157.2227)">
          <path
             d="m 0,0 h -17.775 c 0.024,-0.083 0.045,-0.167 0.068,-0.25 H 0.081 C 0.054,-0.166 0.027,-0.083 0,0"
             style="fill:#005977;fill-opacity:1;fill-rule:nonzero;stroke:none"
             id="path38" />
        </g>
        <g
           id="g40"
           transform="translate(107.8536,124.8819)">
          <path
             d="m 0,0 -13.391,-10.462 c 0.052,-0.066 0.105,-0.13 0.157,-0.196 L 0.157,-0.195 C 0.105,-0.13 0.052,-0.065 0,0"
             style="fill:#005977;fill-opacity:1;fill-rule:nonzero;stroke:none"
             id="path42" />
        </g>
      </g>
    </g>
  </g>
</svg>
